<svg xmlns="http://www.w3.org/2000/svg" viewBox="0 0 114.059 26" xmlns:v="https://vecta.io/nano"><g fill="#414141"><path d="M67.418 1.384l-2.277.43v1.847h-1.102l.015 1.892h1.087v5.132a2.784 2.784 0 0 0 .152.944 2.077 2.077 0 0 0 .469.77 2.222 2.222 0 0 0 .772.519 2.666 2.666 0 0 0 1.067.194h1.634l.203-1.888h-.624a9.79 9.79 0 0 1-.772-.025.621.621 0 0 1-.412-.179.767.767 0 0 1-.177-.444 7.398 7.398 0 0 1-.036-.838V5.553h2.021V3.661h-2.02zm36.966 0l-2.277.43v1.847h-1.102l.014 1.892h1.087v5.132a2.791 2.791 0 0 0 .152.944 2.078 2.078 0 0 0 .469.77 2.217 2.217 0 0 0 .772.519 2.666 2.666 0 0 0 1.067.194h1.634l.203-1.888h-.625a9.87 9.87 0 0 1-.772-.025.62.62 0 0 1-.412-.178.761.761 0 0 1-.177-.444 7.306 7.306 0 0 1-.036-.838V5.553h2.021V3.661h-2.021zM70.925 3.66v9.272h2.277v-9.27h-2.268m10.465 6.799a4.162 4.162 0 0 1-2.362.762 2.009 2.009 0 0 1-1.7-.787 3.398 3.398 0 0 1-.609-2.121 3.388 3.388 0 0 1 .609-2.12 2.019 2.019 0 0 1 1.7-.791 4.17 4.17 0 0 1 2.362.762l.203-1.963a5.004 5.004 0 0 0-2.76-.692 4.643 4.643 0 0 0-1.891.37 4.001 4.001 0 0 0-1.393 1.026 4.555 4.555 0 0 0-.875 1.515 5.752 5.752 0 0 0-.305 1.892 5.834 5.834 0 0 0 .305 1.899 4.446 4.446 0 0 0 .875 1.518 4.013 4.013 0 0 0 1.395 1.01 4.612 4.612 0 0 0 1.889.37 5.016 5.016 0 0 0 2.757-.686z"/><path d="M88.459 3.712l-2.919 3.79V.033h-2.28v12.945h2.28V8.853l2.92 4.124h2.57l-3.362-4.829 3.361-4.439zm10.362.906a3.733 3.733 0 0 0-1.285-.814 4.418 4.418 0 0 0-1.608-.288 4.491 4.491 0 0 0-1.848.37 4.089 4.089 0 0 0-1.387 1.027 4.647 4.647 0 0 0-.872 1.532 5.647 5.647 0 0 0-.305 1.869 5.512 5.512 0 0 0 .322 1.899 4.159 4.159 0 0 0 .955 1.518 4.482 4.482 0 0 0 1.561 1.01 5.783 5.783 0 0 0 2.14.369 6.558 6.558 0 0 0 3.068-.7l-.113-1.949a4.753 4.753 0 0 1-.662.305 7.562 7.562 0 0 1-.747.242 6.874 6.874 0 0 1-.744.152 4.591 4.591 0 0 1-.686.056 2.811 2.811 0 0 1-1.778-.61 2.711 2.711 0 0 1-.967-1.817h5.95a6.58 6.58 0 0 0 .147-1.259 4.296 4.296 0 0 0-.305-1.648 3.734 3.734 0 0 0-.837-1.265zm-4.895 2.623a2.585 2.585 0 0 1 .703-1.336 1.872 1.872 0 0 1 1.366-.502 1.447 1.447 0 0 1 1.253.557 2.119 2.119 0 0 1 .407 1.281zm19.956 2.053a2.312 2.312 0 0 0-.505-.795 2.788 2.788 0 0 0-.801-.555 6.719 6.719 0 0 0-1.036-.391l-.376-.101-.359-.102-.312-.094a2.858 2.858 0 0 1-.762-.408.792.792 0 0 1-.285-.664.828.828 0 0 1 .432-.767 2.143 2.143 0 0 1 1.092-.252 3.279 3.279 0 0 1 .718.085 4.186 4.186 0 0 1 .697.221 4.38 4.38 0 0 1 .615.324 3.763 3.763 0 0 1 .488.373l.202-1.963a3.869 3.869 0 0 0-1.223-.485 6.95 6.95 0 0 0-1.662-.203 4.182 4.182 0 0 0-1.534.252 2.927 2.927 0 0 0-1.036.656 2.564 2.564 0 0 0-.599.937 3.188 3.188 0 0 0-.193 1.099 2.871 2.871 0 0 0 .331 1.269 2.271 2.271 0 0 0 .826.77 8.505 8.505 0 0 0 1.322.548l1.003.335a1.835 1.835 0 0 1 .633.369.823.823 0 0 1 .221.619.96.96 0 0 1-.312.722 1.553 1.553 0 0 1-1.083.3 3.75 3.75 0 0 1-.773-.083 6.287 6.287 0 0 1-.78-.216 5.538 5.538 0 0 1-.717-.294 3.43 3.43 0 0 1-.561-.335l-.198 1.964a5.602 5.602 0 0 0 3.105.686q3.598 0 3.6-2.72a3.09 3.09 0 0 0-.177-1.099zM73.338 1.28a1.235 1.235 0 1 1 0-.002z"/></g><path d="M70.379 23.746h-2.254l1.276-1.063a4.237 4.237 0 0 0 .468-.425 6.104 6.104 0 0 1 1.02-4.805 3.599 3.599 0 0 0-3.147-1.488 3.411 3.411 0 0 0-3.699 3.359v.255h2.467v-.255a1.101 1.101 0 0 1 1.233-1.148c.765 0 1.191.383 1.191 1.02a2.843 2.843 0 0 1-1.148 1.743l-3.614 3.317.255 1.573h7.271v-.595a4.112 4.112 0 0 1-1.318-1.488zm8.289-6.293a4.036 4.036 0 0 0-3.232-1.488c-2.594 0-4.38 2.084-4.38 5.018 0 2.976 1.786 5.017 4.38 5.017 2.551 0 4.422-2.126 4.422-5.017a5.526 5.526 0 0 0-1.191-3.529zm-3.232 6.463c-1.106 0-1.871-1.191-1.871-2.891s.765-2.891 1.871-2.891 1.913 1.191 1.913 2.891c0 1.446-.638 2.891-1.913 2.891zm9.033 1.915v-3.815l-2.909-5.29h2.318l1.581 3.288h.021l1.707-3.288h2.171l-3.035 5.353v3.752zm6.217-2.971a1.729 1.729 0 0 0 1.707 1.644 1.941 1.941 0 0 0 1.791-1.012l1.201.822A3.396 3.396 0 0 1 92.267 26a3.319 3.319 0 0 1-3.456-3.499 3.508 3.508 0 0 1 3.478-3.646 3.154 3.154 0 0 1 3.309 3.161 6.004 6.004 0 0 1-.084.864h-4.826zm3.014-1.265a1.318 1.318 0 0 0-1.37-1.328 1.552 1.552 0 0 0-1.56 1.328zm7.377 4.236l-.148-.59a2.289 2.289 0 0 1-1.855.738 2.253 2.253 0 0 1-2.466-2.171c0-1.686 1.56-2.213 2.972-2.213a5.383 5.383 0 0 1 1.243.148v-.105c0-.864-.358-1.37-1.349-1.37a4.638 4.638 0 0 0-2.065.59l-.485-1.327a6.886 6.886 0 0 1 2.93-.695 2.574 2.574 0 0 1 2.824 2.887v4.11zm-.253-2.993a4.038 4.038 0 0 0-.927-.126c-.674 0-1.475.253-1.475 1.054a.933.933 0 0 0 1.033.906 2.027 2.027 0 0 0 1.37-.59zm5.311-2.95a1.954 1.954 0 0 1 1.602-1.075 2.776 2.776 0 0 1 .885.148l-.443 1.623a1.356 1.356 0 0 0-.653-.148 1.506 1.506 0 0 0-1.286.759v4.637h-1.855v-6.85h1.602zm6.85.948a2.115 2.115 0 0 0-1.349-.569c-.358 0-.653.19-.653.527 0 .421.506.653 1.075.885.885.358 2.002.801 2.002 2.108 0 1.517-1.307 2.192-2.634 2.192a3.811 3.811 0 0 1-2.761-1.18l1.054-1.096a2.198 2.198 0 0 0 1.623.801c.379 0 .864-.19.864-.59 0-.485-.632-.695-1.307-.991-.822-.358-1.707-.822-1.707-2.023a2.196 2.196 0 0 1 2.445-2.087 3.311 3.311 0 0 1 2.361.906z" fill="#bfa683"/><path d="M56.443 26H2.87A2.878 2.878 0 0 1 0 23.13V2.87A2.878 2.878 0 0 1 2.87 0h53.573a2.878 2.878 0 0 1 2.866 2.87v20.26A2.878 2.878 0 0 1 56.443 26z" fill="#2e6fa9"/><path d="M15.748 14.333l-.303 2.824h-1.248a3.202 3.202 0 0 1-3.102-1.606 5.397 5.397 0 0 1-4.236 1.606 4.286 4.286 0 0 1-1.592-.29 3.709 3.709 0 0 1-1.274-.831 3.817 3.817 0 0 1-.845-1.302 4.627 4.627 0 0 1-.303-1.731 3.429 3.429 0 0 1 .828-2.352A6.253 6.253 0 0 1 5.69 9.138a10.178 10.178 0 0 1 2.534-.817 15.55 15.55 0 0 1 2.396-.276 2.479 2.479 0 0 0-.605-1.758 2.754 2.754 0 0 0-1.883-.51 8.898 8.898 0 0 0-3.795 1.052l-.303-2.797A11.732 11.732 0 0 1 9.08 2.813q5.012 0 5.012 5.566v3.738q0 .748.041 1.191a1.86 1.86 0 0 0 .166.679.54.54 0 0 0 .373.29 3.005 3.005 0 0 0 .637.055h.438zm-5.095-.807v-3.157a10.84 10.84 0 0 0-1.564.222 5.004 5.004 0 0 0-1.343.484 3.131 3.131 0 0 0-.941.761 1.576 1.576 0 0 0-.361 1.034q0 1.661 1.855 1.661a3.342 3.342 0 0 0 2.354-1.001zm10.938 3.631a8.498 8.498 0 0 1-4.68-1.025l.303-2.935a5.228 5.228 0 0 0 .844.498 9.336 9.336 0 0 0 1.08.443 9.546 9.546 0 0 0 1.177.319 5.807 5.807 0 0 0 1.165.128 2.37 2.37 0 0 0 1.634-.443 1.427 1.427 0 0 0 .471-1.08 1.226 1.226 0 0 0-.332-.928 2.809 2.809 0 0 0-.955-.554q-.623-.235-1.513-.498a12.391 12.391 0 0 1-1.994-.817 3.349 3.349 0 0 1-1.246-1.149 4.198 4.198 0 0 1-.498-1.897 4.734 4.734 0 0 1 .291-1.647 3.833 3.833 0 0 1 .9-1.398 4.497 4.497 0 0 1 1.567-.986 6.355 6.355 0 0 1 2.312-.374 10.409 10.409 0 0 1 2.506.303 5.865 5.865 0 0 1 1.841.72l-.303 2.935a5.715 5.715 0 0 0-.734-.554 5.89 5.89 0 0 0-.928-.484 6.348 6.348 0 0 0-1.053-.327 4.911 4.911 0 0 0-1.08-.125 3.273 3.273 0 0 0-1.647.374 1.237 1.237 0 0 0-.651 1.149 1.182 1.182 0 0 0 .43.997 4.537 4.537 0 0 0 1.149.605l.471.138q.166.056.541.152.374.097.568.152a10.638 10.638 0 0 1 1.564.581 4.228 4.228 0 0 1 1.204.83 3.343 3.343 0 0 1 .762 1.191 4.595 4.595 0 0 1 .263 1.634q-.002 4.072-5.429 4.072zm19.66-2.824l-.303 2.824H39.7a3.202 3.202 0 0 1-3.102-1.606 5.396 5.396 0 0 1-4.236 1.606 4.286 4.286 0 0 1-1.592-.29 3.71 3.71 0 0 1-1.274-.831 3.818 3.818 0 0 1-.844-1.301 4.627 4.627 0 0 1-.303-1.731 3.43 3.43 0 0 1 .831-2.354 6.246 6.246 0 0 1 2.017-1.513 10.176 10.176 0 0 1 2.534-.817 15.553 15.553 0 0 1 2.396-.276 2.48 2.48 0 0 0-.605-1.758 2.754 2.754 0 0 0-1.883-.512 8.895 8.895 0 0 0-3.796 1.056l-.303-2.797a11.733 11.733 0 0 1 5.043-1.218q5.012 0 5.012 5.566v3.738q0 .748.041 1.191a1.858 1.858 0 0 0 .166.679.54.54 0 0 0 .373.29 3.003 3.003 0 0 0 .638.055h.437zm-5.095-.807v-3.157a10.842 10.842 0 0 0-1.564.222 5.008 5.008 0 0 0-1.343.484 3.132 3.132 0 0 0-.941.761 1.577 1.577 0 0 0-.36 1.025q0 1.661 1.855 1.661a3.343 3.343 0 0 0 2.353-.993zm13.678 3.631a5.622 5.622 0 0 1-3.24-.941v6.787h-3.429V3.035h2.991l.277.807a5.966 5.966 0 0 1 3.407-1.025 6.984 6.984 0 0 1 2.838.554 6.166 6.166 0 0 1 2.132 1.523 6.807 6.807 0 0 1 1.343 2.285 8.281 8.281 0 0 1 .471 2.81 8.383 8.383 0 0 1-.457 2.797 6.913 6.913 0 0 1-1.311 2.284 5.918 5.918 0 0 1-2.141 1.532 7.161 7.161 0 0 1-2.88.555zm-.235-11.519a2.683 2.683 0 0 0-2.386 1.163 5.622 5.622 0 0 0-.786 3.184 5.622 5.622 0 0 0 .786 3.184 2.683 2.683 0 0 0 2.386 1.163 3.054 3.054 0 0 0 2.563-1.177 5.053 5.053 0 0 0 .908-3.17 5.052 5.052 0 0 0-.908-3.167 3.054 3.054 0 0 0-2.563-1.18z" fill="#fff"/></svg>